<?xml version="1.0" encoding="UTF-8" standalone="no"?>
<!-- Created with Inkscape (http://www.inkscape.org/) -->

<svg
   version="1.1"
   id="svg2"
   xml:space="preserve"
   width="298.23334"
   height="151.2536"
   viewBox="0 0 298.23332 151.25359"
   sodipodi:docname="clo-2.svg"
   inkscape:version="1.1.2 (0a00cf5339, 2022-02-04)"
   xmlns:inkscape="http://www.inkscape.org/namespaces/inkscape"
   xmlns:sodipodi="http://sodipodi.sourceforge.net/DTD/sodipodi-0.dtd"
   xmlns="http://www.w3.org/2000/svg"
   xmlns:svg="http://www.w3.org/2000/svg"><defs
     id="defs6" /><sodipodi:namedview
     id="namedview4"
     pagecolor="#ffffff"
     bordercolor="#666666"
     borderopacity="1.0"
     inkscape:pageshadow="2"
     inkscape:pageopacity="0.0"
     inkscape:pagecheckerboard="0"
     showgrid="false"
     inkscape:zoom="1.1574453"
     inkscape:cx="307.14194"
     inkscape:cy="-306.27797"
     inkscape:window-width="1792"
     inkscape:window-height="1551"
     inkscape:window-x="1764"
     inkscape:window-y="270"
     inkscape:window-maximized="0"
     inkscape:current-layer="g8" /><g
     id="g8"
     inkscape:groupmode="layer"
     inkscape:label="ink_ext_XXXXXX"
     transform="matrix(1.3333333,0,0,-1.3333333,-312.41199,210.85199)"><path
       d="m 234.309,44.6988 h 223.04 c 0.416,1.9922 0.635,4.0551 0.635,6.1703 0,16.6168 -13.469,30.0879 -30.088,30.0879 -5.25,0 -10.183,-1.348 -14.48,-3.7109 0.625,2.5168 0.963,5.1461 0.963,7.8559 0,17.94 -14.546,32.484 -32.488,32.484 -0.535,0 -1.065,-0.015 -1.593,-0.04 -1.223,22.625 -19.952,40.593 -42.885,40.593 -23.721,0 -42.95,-19.229 -42.95,-42.95 0,-0.225 0.014,-0.449 0.017,-0.673 -2.19,0.44 -4.457,0.673 -6.777,0.673 -18.905,0 -34.23,-15.3249 -34.23,-34.232 0,-3.534 0.536,-6.9418 1.531,-10.15 -11.622,-3.166 -20.246,-13.5929 -20.695,-26.1082"
       style="opacity:0.749803;fill:#b8e8f6;fill-opacity:1;fill-rule:nonzero;stroke:none;stroke-width:0.1"
       id="path22" /></g></svg>
