<?xml version="1.0" encoding="UTF-8" standalone="no"?>
<!-- Created with Inkscape (http://www.inkscape.org/) -->

<svg
   version="1.1"
   id="svg2"
   width="732.27734"
   height="487.58978"
   viewBox="0 0 732.27734 487.58979"
   sodipodi:docname="seattle.svg"
   inkscape:version="1.1.2 (0a00cf5339, 2022-02-04)"
   xmlns:inkscape="http://www.inkscape.org/namespaces/inkscape"
   xmlns:sodipodi="http://sodipodi.sourceforge.net/DTD/sodipodi-0.dtd"
   xmlns="http://www.w3.org/2000/svg"
   xmlns:svg="http://www.w3.org/2000/svg">
  <defs
     id="defs6" />
  <sodipodi:namedview
     id="namedview4"
     pagecolor="#ffffff"
     bordercolor="#666666"
     borderopacity="1.0"
     inkscape:pageshadow="2"
     inkscape:pageopacity="0.0"
     inkscape:pagecheckerboard="0"
     showgrid="false"
     inkscape:zoom="1.5580382"
     inkscape:cx="591.12798"
     inkscape:cy="228.17155"
     inkscape:window-width="3840"
     inkscape:window-height="2083"
     inkscape:window-x="0"
     inkscape:window-y="40"
     inkscape:window-maximized="1"
     inkscape:current-layer="g8" />
  <g
     inkscape:groupmode="layer"
     inkscape:label="Image"
     id="g8"
     transform="translate(-221.61669,98.898138)">
    <path
       id="path935"
       style="fill:#000000;stroke-width:0.32"
       d="m 576.04102,3.3359375 c -0.45478,-0.086265 -0.56055,0.124203 -0.56055,1.125 0,0.836351 -0.20629,1.409352 -0.64063,1.78125 -0.79224,0.678291 -0.81585,1.3489634 -0.0684,1.8964844 0.58279,0.426881 0.49409,4.1452671 -0.95507,40.2578121 -0.0944,2.353043 -0.11378,2.402684 -0.97657,2.501954 l -0.8789,0.09961 v 3.019531 c 0,2.190252 -0.11018,3.025516 -0.40039,3.041016 -0.22,0.01177 -2.23647,0.195466 -4.48047,0.410156 L 563,57.859375 V 57.09375 c 0,-0.56674 -0.13117,-0.716046 -0.50586,-0.572266 -0.2784,0.10683 -0.63723,0.195313 -0.79883,0.195313 -0.1616,0 -0.29492,0.286672 -0.29492,0.638672 0,0.5744 -0.21342,0.640625 -2.08008,0.640625 h -2.08008 v 3.359375 3.361328 h -2.8457 c -2.29264,0 -2.88351,0.09657 -3.03906,0.501953 -0.31882,0.83079 0.32921,1.619807 2.99414,3.648438 3.0575,2.32749 3.53125,2.956024 3.53125,4.677734 0,2.69421 -1.43538,3.567221 -12.32031,7.49414 -12.39411,4.471383 -15.51352,5.429594 -17.67969,5.433594 l -2,0.0039 v 1.121094 c 0,1.0667 -0.0544,1.119141 -1.12109,1.119141 -0.81578,0 -1.11915,-0.140745 -1.11915,-0.515625 0,-0.73225 -1.56897,-0.298881 -2.40039,0.662109 -0.352,0.40685 -2.58298,1.631257 -4.95898,2.722657 -2.376,1.091409 -4.36939,2.033649 -4.42969,2.09375 -0.0883,0.08803 0.68587,3.02906 1.74219,6.619138 0.17405,0.59143 -0.60256,0.86277 -7.99805,2.80859 -3.7912,0.99749 -6.02238,1.90128 -6.46484,2.61719 -0.44448,0.7192 1.36164,1.77445 4.23633,2.47461 1.55837,0.37955 5.99393,1.18977 9.85547,1.80078 3.86153,0.61102 7.1193,1.21985 7.24023,1.35352 0.21328,0.23574 1.90144,7.58144 1.89844,8.26171 -7.1e-4,0.18607 -1.04431,0.60293 -2.32031,0.92579 -3.65351,0.92442 -4.4004,1.30046 -4.4004,2.21679 0,0.62343 0.39361,1.03095 1.83985,1.9043 5.0496,3.04932 10.38769,4.37878 21.51953,5.36328 2.376,0.21013 4.36788,0.42135 4.42578,0.46875 0.0579,0.0474 1.95683,12.9504 4.2207,28.67383 2.26388,15.72342 5.48778,37.73221 7.16407,48.9082 5.19721,34.65111 5.87815,40.38041 6.57812,55.36133 0.50779,10.87651 0.76611,31.13469 0.50195,39.43945 l -0.24218,7.59961 h -4.44336 -4.44531 v -2.56054 -2.5586 h -1.44141 -1.44336 l 0.084,-20.24023 0.082,-20.24024 2.32031,-0.0937 2.32031,-0.0937 v -2.0664 -2.06641 h -49.12109 -49.11914 v 2.06445 2.06446 l 1.83984,0.0957 1.83984,0.0957 0.082,29.03907 0.082,29.04101 h -8.00196 -8.00195 v 39.67969 39.67969 h -15.51953 -15.52149 v 2.7207 2.71875 h -3.03906 -3.04101 v 22.40039 22.40039 h -2.39844 -2.40039 v -4.32031 -4.32031 H 379.32031 356.28125 V 417.67578 391.4375 h -3.20117 -3.19922 v -8.16016 -8.16015 h -5.54297 -5.54297 l -4.29101,-6.96094 c -2.35988,-3.828 -4.9048,-7.87866 -5.65625,-9.00195 l -1.36719,-2.04297 v -3.15625 -3.1582 h -14.40039 -14.39844 v 3.80468 3.80469 l -5.19726,8.35547 -5.19532,8.35547 h -4.24414 -4.24414 v 4.16015 4.16016 h -1.11914 -1.12109 v 4 4 h -1.75977 -1.75976 v 3.03906 3.04102 h -1.27149 -1.27344 l -0.0879,5.03906 -0.0879,5.04102 -11.27929,0.084 -11.2793,0.084 v 7.35547 7.35547 h -10.08008 -10.08008 v 14.40039 14.40039 h -4.96094 -4.95898 v -17.4414 -17.43946 h -7.20117 -7.19922 v -5.43945 -5.43945 h -4.80078 -4.79883 v 5.43945 5.43945 h -7.52148 -7.51954 v -2.40039 -2.39843 h -13.27929 -13.28125 v 2.39843 2.40039 h -13.2793 -13.2793 v 21.2793 21.28125 H 122.041 117.56053 V 386.4766 313.99613 h -3.35938 -3.35937 v -5.91992 -5.91992 h -4 -4 v -1.43945 -1.43946 h -5.761722 -5.759766 v -2.08007 -2.08008 H 86.65625 c -3.10344,0 -16.211531,-0.96451 -39.175781,-2.88086 -18.98157,-1.584 -35.02703,-2.87891 -35.65625,-2.87891 h -1.142578 v 12.31836 12.32031 H 5.7207031 0.76171875 v 78.56055 78.56055 H -0.31445312 V 490.9082 H 731.96289 V 481.36133 399.125 l -10,-0.084 -10,-0.084 -0.082,-113.18945 -0.0801,-113.18946 -3.43945,-0.0918 -3.43945,-0.0899 -0.0898,-3.91406 -0.0898,-3.91211 -5.99024,-0.0879 -5.99023,-0.0859 -0.0898,-3.5996 -0.0918,-3.60157 h -2.0586 -2.05859 l -0.0918,3.60157 -0.0898,3.5996 -19.28125,0.082 -19.2793,0.082 v 3.99804 3.99805 H 647 644.28125 v 41.91992 41.91992 h -4.32031 -4.32032 v 2.87891 2.88086 h -4.16015 -4.16016 v 48.48047 48.48047 h -3.1914 -3.19141 l -0.0879,5.03906 -0.0879,5.04102 h -8.64063 -8.64062 l -0.21875,-2.40039 c -0.12048,-1.32 -0.94176,-10.10549 -1.82617,-19.52149 -2.66756,-28.40103 -3.04043,-34.32283 -3.58008,-56.95898 -0.36352,-15.2486 -0.18605,-38.25927 0.36719,-47.51953 0.37072,-6.20485 1.59772,-17.33766 4.16211,-37.75977 2.96073,-23.57868 9.80502,-75.05698 10.00585,-75.25781 0.0401,-0.0401 3.97856,-0.72787 8.75196,-1.52735 9.00781,-1.50869 12.24454,-2.3954 16.4375,-4.50586 1.15412,-0.58091 2.28148,-1.27648 2.50586,-1.54687 1.0585,-1.2754 -0.47789,-2.4347 -4.28125,-3.23047 -1.18131,-0.24716 -2.18989,-0.49498 -2.24219,-0.55078 -0.14467,-0.15429 1.02944,-8.27943 1.22461,-8.47461 0.0938,-0.0938 4.14246,-0.85849 8.99805,-1.69922 9.70256,-1.67996 11.77018,-2.35283 11.95312,-3.89648 0.13267,-1.11939 -0.39857,-1.40829 -6.97656,-3.78711 -3.08,-1.113833 -5.91762,-2.140733 -6.30469,-2.281253 l -0.70312,-0.253906 0.64453,-1.910157 c 0.35453,-1.04982 0.59847,-2.45547 0.54297,-3.125 -0.0863,-1.041459 -0.28582,-1.322872 -1.38086,-1.945312 -0.704,-0.40017 -1.82047,-0.872608 -2.48047,-1.048828 -0.66,-0.17622 -1.77019,-0.467638 -2.4668,-0.648438 -0.78032,-0.20251 -1.20803,-0.479013 -1.11523,-0.720703 0.13676,-0.35643 -4.51525,-3.431641 -5.19141,-3.431641 -0.14979,10e-7 -0.45206,0.288625 -0.67187,0.640626 -0.63481,1.016489 -1.97473,0.838407 -2.41211,-0.320313 -0.35309,-0.9355 -0.41642,-0.958984 -2.51172,-0.958984 -1.91657,0 -3.3095,-0.40261 -12.81055,-3.707032 -5.86279,-2.03905 -11.12098,-3.99117 -11.68555,-4.33789 -1.62115,-0.9956 -2.65429,-2.418623 -2.65429,-3.658203 0,-1.32009 1.55405,-3.19422 3.68554,-4.44336 1.68201,-0.98572 2.39453,-1.919545 2.39453,-3.140625 0,-0.73037 -0.21392,-0.99499 -1.10937,-1.36914 -0.61034,-0.25502 -1.77569,-0.464844 -2.58984,-0.464844 -1.1966,0 -1.51116,-0.118504 -1.64258,-0.621094 -0.0945,-0.36152 -0.55055,-0.707722 -1.08985,-0.826172 -0.90566,-0.19895 -0.92773,-0.251162 -0.92773,-2.257812 v -2.054688 l -2.16016,-0.02734 c -4.84873,-0.06293 -6.38106,-0.665828 -5.05664,-1.990235 0.78278,-0.782797 0.59624,-1.173937 -0.86328,-1.806641 -2.22208,-0.963273 -3.40463,-1.118972 -3.65039,-0.478515 -0.11565,0.301332 -0.0436,0.814327 0.16016,1.140625 0.20377,0.326298 0.36914,1.03614 0.36914,1.576172 0,0.971746 -0.0152,0.981265 -1.51953,0.884765 l -1.51953,-0.09766 0.10351,-3.121094 0.10352,-3.11914 h -0.8086 c -0.66611,0 -0.83877,-0.185259 -0.97461,-1.041016 -0.43159,-2.718711 -3.31321,-41.1885212 -3.16406,-42.2402342 0.1041,-0.7340031 0.0399,-1.1992188 -0.16601,-1.1992188 -0.18512,0 -0.38145,-0.6109469 -0.43555,-1.3574219 -0.0718,-0.990053 -0.24968,-1.3854006 -0.6582,-1.4628906 z M 607.32031,129.99609 c 0.54503,0 0.80078,0.17755 0.80078,0.55469 0,0.30446 -1.21609,9.77152 -2.70117,21.03906 -1.48506,11.26754 -2.76094,20.84711 -2.83594,21.28711 l -0.13671,0.79883 -0.043,-0.80078 c -0.024,-0.44058 0.89311,-10.04292 2.03711,-21.33984 1.144,-11.29692 2.08007,-20.76458 2.08007,-21.03907 0,-0.31903 0.28747,-0.5 0.79883,-0.5 z m -7.03515,0.38868 1.60351,0.0918 -4.86133,40.16016 c -2.67415,22.088 -5.09343,41.16839 -5.37695,42.40039 -0.28349,1.232 -0.77663,2.81553 -1.0957,3.51953 l -0.58008,1.2793 -0.20899,-7.51953 c -0.37644,-13.51058 -1.23848,-78.75177 -1.04296,-78.94727 0.28585,-0.28587 9.71805,-1.08916 11.5625,-0.98437 z m -51.70118,0.23437 c 0.35399,0.0384 0.78498,0.29689 0.9668,0.73828 0.1631,0.396 1.17659,8.04304 2.25195,16.99414 1.07533,8.9511 1.90601,16.32447 1.84571,16.38477 -0.0603,0.0603 -1.30207,-7.33613 -2.75977,-16.43555 -1.45773,-9.09942 -2.72244,-16.79551 -2.81055,-17.10351 -0.1244,-0.43516 0.15188,-0.61657 0.50586,-0.57813 z m 6.48438,0.27734 c 0.31217,-0.0368 0.85387,0.005 1.77344,0.10743 1.188,0.13209 3.70761,0.24686 5.59961,0.25586 l 3.43945,0.0176 0.008,6.47852 c 0.004,3.564 0.2166,23.32792 0.47266,43.91992 0.2561,20.592 0.46865,38.12494 0.47265,38.96094 0.007,1.36521 -0.0662,1.51974 -0.71289,1.51953 -0.71788,-2.2e-4 -0.73516,-0.13172 -6.09375,-45.19922 -2.95587,-24.85987 -5.36932,-45.42413 -5.36132,-45.69726 0.006,-0.21142 0.0902,-0.32647 0.40234,-0.36329 z m 47.19336,43.33985 c 0.0805,0.308 0.0805,0.81309 0,1.12109 -0.0804,0.308 -0.14649,0.0555 -0.14649,-0.56054 0,-0.61601 0.066,-0.86855 0.14649,-0.56055 z m -34.97266,54 h 1.08789 l 0.1836,3.59961 c 0.10009,1.98 0.25048,8.46039 0.33398,14.40039 h -0.002 c 0.084,5.94 0.0881,10.80078 0.01,10.80078 -0.0783,0 -0.14062,-0.20821 -0.14062,-0.46289 0,-0.25468 -0.57725,-6.65387 -1.28125,-14.21875 -0.704,-7.56488 -1.2793,-13.83511 -1.2793,-13.93555 0,-0.10042 0.48924,-0.18359 1.08789,-0.18359 z m 27.03711,31.67969 c 0.56352,0 0.61899,0.38519 0.79297,5.52148 0.10285,3.036 0.33992,14.51952 0.52734,25.51953 0.52164,30.61568 0.72918,34.61314 3.36329,64.64063 0.60985,6.952 1.10937,12.89122 1.10937,13.19922 8.9e-4,0.66072 -1.53462,0.80047 -1.75976,0.16015 -0.19137,-0.54413 -2.32169,-33.92601 -2.71094,-42.48047 -0.43242,-9.50298 -1.92774,-60.07088 -1.92774,-65.19922 -6e-5,-1.12095 0.10631,-1.36132 0.60547,-1.36132 z m -6.38281,87.36132 c 0.68154,0 1.26786,1.53292 1.92969,5.05664 0.34067,1.81382 1.60742,14.48283 1.60742,16.07227 v 0.95117 h -2.50586 c -1.37869,0 -2.60339,-0.0975 -2.7207,-0.21484 -0.58755,-0.58755 0.0562,-19.24787 0.72461,-21.00586 0.20413,-0.53686 0.56586,-0.85938 0.96484,-0.85938 z m -20.92578,1.01563 c 0.0467,-0.0572 0.7316,-0.007 1.52344,0.11133 1.30282,0.19539 1.45689,0.31232 1.61523,1.22461 0.0962,0.55443 0.21081,5.18311 0.25391,10.28711 l 0.0781,9.28125 -2.7832,0.0918 c -1.53107,0.0508 -2.78606,-0.0213 -2.78906,-0.16015 -0.0109,-0.57126 2.02346,-20.74024 2.10156,-20.83594 z"
       transform="translate(221.93114,-102.21656)" />
  </g>
</svg>
