<?xml version="1.0" encoding="UTF-8" standalone="no"?>
<!-- Created with Inkscape (http://www.inkscape.org/) -->

<svg
   version="1.1"
   id="svg2"
   xml:space="preserve"
   width="1066.6667"
   height="1066.6667"
   viewBox="0 0 1066.6667 1066.6667"
   sodipodi:docname="all.svg"
   inkscape:version="1.1.2 (0a00cf5339, 2022-02-04)"
   xmlns:inkscape="http://www.inkscape.org/namespaces/inkscape"
   xmlns:sodipodi="http://sodipodi.sourceforge.net/DTD/sodipodi-0.dtd"
   xmlns="http://www.w3.org/2000/svg"
   xmlns:svg="http://www.w3.org/2000/svg"><defs
     id="defs6"><filter
       inkscape:collect="always"
       style="color-interpolation-filters:sRGB"
       id="filter14759"
       x="-0.016048761"
       y="-0.034624781"
       width="1.0320975"
       height="1.0692496"><feGaussianBlur
         inkscape:collect="always"
         stdDeviation="1.6081768"
         id="feGaussianBlur14761" /></filter><filter
       inkscape:collect="always"
       style="color-interpolation-filters:sRGB"
       id="filter14763"
       x="-0.017936641"
       y="-0.038785127"
       width="1.0358733"
       height="1.0775703"><feGaussianBlur
         inkscape:collect="always"
         stdDeviation="1.6081768"
         id="feGaussianBlur14765" /></filter><filter
       inkscape:collect="always"
       style="color-interpolation-filters:sRGB"
       id="filter14767"
       x="-0.01918045"
       y="-0.04396879"
       width="1.0383609"
       height="1.0879376"><feGaussianBlur
         inkscape:collect="always"
         stdDeviation="1.6081768"
         id="feGaussianBlur14769" /></filter><filter
       inkscape:collect="always"
       style="color-interpolation-filters:sRGB"
       id="filter14771"
       x="-0.016383602"
       y="-0.036549127"
       width="1.0327672"
       height="1.0730983"><feGaussianBlur
         inkscape:collect="always"
         stdDeviation="1.6081768"
         id="feGaussianBlur14773" /></filter><filter
       inkscape:collect="always"
       style="color-interpolation-filters:sRGB"
       id="filter14775"
       x="-0.003744708"
       y="-0.0091888896"
       width="1.0074894"
       height="1.0183778"><feGaussianBlur
         inkscape:collect="always"
         stdDeviation="0.39840728"
         id="feGaussianBlur14777" /></filter><filter
       inkscape:collect="always"
       style="color-interpolation-filters:sRGB"
       id="filter14779"
       x="-0.0052707219"
       y="-0.013375543"
       width="1.0105414"
       height="1.0267511"><feGaussianBlur
         inkscape:collect="always"
         stdDeviation="0.39840728"
         id="feGaussianBlur14781" /></filter><filter
       inkscape:collect="always"
       style="color-interpolation-filters:sRGB"
       id="filter14783"
       x="-0.0045887297"
       y="-0.0091292317"
       width="1.0091775"
       height="1.0182585"><feGaussianBlur
         inkscape:collect="always"
         stdDeviation="0.39840728"
         id="feGaussianBlur14785" /></filter><filter
       inkscape:collect="always"
       style="color-interpolation-filters:sRGB"
       id="filter14787"
       x="-0.0038021555"
       y="-0.011231968"
       width="1.0076043"
       height="1.0224639"><feGaussianBlur
         inkscape:collect="always"
         stdDeviation="0.39840728"
         id="feGaussianBlur14789" /></filter><filter
       inkscape:collect="always"
       style="color-interpolation-filters:sRGB"
       id="filter14791"
       x="-0.0040742669"
       y="-0.0099724398"
       width="1.0081485"
       height="1.0199449"><feGaussianBlur
         inkscape:collect="always"
         stdDeviation="0.39840728"
         id="feGaussianBlur14793" /></filter></defs><sodipodi:namedview
     id="namedview4"
     pagecolor="#ffffff"
     bordercolor="#666666"
     borderopacity="1.0"
     inkscape:pageshadow="2"
     inkscape:pageopacity="0.0"
     inkscape:pagecheckerboard="0"
     showgrid="false"
     inkscape:zoom="0.90509668"
     inkscape:cx="635.84368"
     inkscape:cy="549.66504"
     inkscape:window-width="1792"
     inkscape:window-height="1551"
     inkscape:window-x="1764"
     inkscape:window-y="270"
     inkscape:window-maximized="0"
     inkscape:current-layer="g8" /><g
     id="g8"
     inkscape:groupmode="layer"
     inkscape:label="ink_ext_XXXXXX"
     transform="matrix(1.3333333,0,0,-1.3333333,0,1066.6667)"><path
       d="m 201.948,45.8551 c 1.678,5.7929 3.76,15.6898 3.76,20.0918 0,23.8121 -19.305,43.1161 -43.116,43.1161 -2.192,0 -4.344,-0.166 -6.448,-0.481 -8.542,15.07 -24.716,25.245 -43.273,25.245 -16.7788,0 -31.6034,-8.318 -40.6077,-21.046 -2.9457,0.596 -5.9922,0.91 -9.1133,0.91 -25.259,0 -45.7383,-20.473 -45.7383,-45.7371 0,-5.2609 3.1047,-16.043 5.2621,-22.0988 H 201.948"
       style="fill:#f3ebf3;fill-opacity:1;fill-rule:nonzero;stroke:none;stroke-width:0.1;opacity:0.7498029"
       id="path14" /><path
       d="m 261.502,491.986 c 0.464,1.697 0.716,3.48 0.716,5.323 0,9.181 -6.142,16.925 -14.54,19.36 1.514,3.036 2.371,6.457 2.371,10.081 0,10.342 -6.944,19.056 -16.423,21.748 0.228,1.527 0.349,3.089 0.349,4.68 0,17.379 -14.089,31.468 -31.469,31.468 -7.42,0 -14.235,-2.575 -19.614,-6.871 -4.1,6.345 -11.229,10.548 -19.346,10.548 -5.138,0 -9.883,-1.684 -13.713,-4.529 -5.111,8.276 -14.261,13.793 -24.702,13.793 -15.39,0 -27.9728,-11.982 -28.9486,-27.124 -4.55,2.354 -9.7117,3.693 -15.1886,3.693 -18.2821,0 -33.1032,-14.821 -33.1032,-33.102 0,-5.125 1.1657,-9.977 3.2442,-14.307 -0.0371,0 -0.0739,0.003 -0.111,0.003 -13.4668,0 -24.3843,-10.918 -24.3843,-24.385 0,-3.712 0.8335,-7.228 2.3175,-10.379 h 232.545"
       style="fill:#d1eff9;fill-opacity:1;fill-rule:nonzero;stroke:none;stroke-width:0.1;opacity:0.7498029;filter:url(#filter14771)"
       id="path16" /><path
       d="m 476.735,205.612 c 0.375,1.629 0.582,3.324 0.582,5.065 0,12.376 -10.031,22.408 -22.41,22.408 -0.412,0 -0.822,-0.012 -1.23,-0.034 -1.489,11.178 -11.055,19.807 -22.643,19.807 -2.906,0 -5.683,-0.549 -8.242,-1.54 -0.643,10.748 -9.559,19.261 -20.463,19.261 -2.017,0 -3.963,-0.296 -5.803,-0.838 -5.96,10.802 -17.456,18.121 -30.665,18.121 -19.276,0 -34.907,-15.579 -35.001,-34.833 -6.885,7.032 -16.48,11.4 -27.099,11.4 -20.373,0 -36.989,-16.059 -37.89,-36.211 -2.489,0.872 -5.164,1.352 -7.952,1.352 -13.246,0 -23.984,-10.717 -24.018,-23.958 h 242.834"
       style="fill:#e5f4f8;fill-opacity:1;fill-rule:nonzero;stroke:none;stroke-width:0.1;opacity:0.7498029"
       id="path18" /><path
       d="M 578.906,495.394 H 754.94 c 1.916,2.715 3.05,6.021 3.05,9.598 0,9.222 -7.477,16.699 -16.7,16.699 -1.486,0 -2.919,-0.212 -4.291,-0.577 -0.728,17.621 -15.238,31.686 -33.04,31.686 -8.535,0 -16.313,-3.235 -22.181,-8.542 -4.592,13.17 -17.114,22.623 -31.848,22.623 -17.248,0 -31.462,-12.949 -33.476,-29.653 -3.192,1.175 -6.642,1.818 -10.243,1.818 -16.366,0 -29.634,-13.266 -29.634,-29.635 0,-4.931 1.211,-9.575 3.341,-13.665 -0.344,-0.104 -0.675,-0.233 -1.012,-0.352"
       style="fill:#f3ebf3;fill-opacity:1;fill-rule:nonzero;stroke:none;stroke-width:0.1;opacity:0.7498029;filter:url(#filter14779)"
       id="path20" /><path
       d="m 234.309,44.6988 h 223.04 c 0.416,1.9922 0.635,4.0551 0.635,6.1703 0,16.6168 -13.469,30.0879 -30.088,30.0879 -5.25,0 -10.183,-1.348 -14.48,-3.7109 0.625,2.5168 0.963,5.1461 0.963,7.8559 0,17.94 -14.546,32.484 -32.488,32.484 -0.535,0 -1.065,-0.015 -1.593,-0.04 -1.223,22.625 -19.952,40.593 -42.885,40.593 -23.721,0 -42.95,-19.229 -42.95,-42.95 0,-0.225 0.014,-0.449 0.017,-0.673 -2.19,0.44 -4.457,0.673 -6.777,0.673 -18.905,0 -34.23,-15.3249 -34.23,-34.232 0,-3.534 0.536,-6.9418 1.531,-10.15 -11.622,-3.166 -20.246,-13.5929 -20.695,-26.1082"
       style="fill:#b8e8f6;fill-opacity:1;fill-rule:nonzero;stroke:none;stroke-width:0.1;opacity:0.7498029"
       id="path22" /><path
       d="m 782.589,44.1609 c -1.461,10.9879 -10.865,19.4692 -22.252,19.4692 -2.893,0 -5.656,-0.5531 -8.195,-1.55 1.962,4.357 3.064,9.1871 3.064,14.2769 0,19.2192 -15.578,34.799 -34.795,34.799 -1.764,0 -3.496,-0.133 -5.189,-0.386 0.002,0.128 0.009,0.256 0.009,0.386 0,26.247 -21.275,47.522 -47.523,47.522 -18.682,0 -34.838,-10.782 -42.604,-26.458 -4.078,1.461 -8.47,2.261 -13.052,2.261 -18.908,0 -34.639,-13.557 -38.031,-31.479 -4.614,2.06 -9.719,3.214 -15.098,3.214 -13.379,0 -25.1,-7.089 -31.621,-17.7121 -1.135,0.2563 -2.312,0.402 -3.524,0.402 -6.433,0 -11.965,-3.811 -14.5,-9.2899 -1.875,0.427 -3.823,0.6602 -5.827,0.6602 -14.432,0 -26.134,-11.7012 -26.134,-26.1321 0,-3.5382 0.707,-6.9082 1.98,-9.9832 h 303.292"
       style="fill:#e8ffff;fill-opacity:1;fill-rule:nonzero;stroke:none;stroke-width:0.1;opacity:0.7498029"
       id="path24" /><path
       d="M 25.9348,345.352 H 234.31 c -0.729,15.335 -13.392,27.549 -28.912,27.549 -1.642,0 -3.249,-0.143 -4.816,-0.406 1.501,3.795 2.335,7.928 2.335,12.257 0,18.422 -14.936,33.36 -33.357,33.36 -0.521,0 -1.038,-0.015 -1.552,-0.039 -5.454,18.507 -22.561,32.017 -42.835,32.017 -18.871,0 -34.9953,-11.707 -41.5363,-28.252 -1.0312,0.079 -2.0699,0.132 -3.1211,0.132 -22.2308,0 -40.2519,-18.021 -40.2519,-40.248 0,-5.678 1.1816,-11.078 3.3043,-15.977 -8.9235,-3.227 -15.7035,-10.929 -17.6332,-20.393"
       style="fill:#e8ffff;fill-opacity:1;fill-rule:nonzero;stroke:none;stroke-width:0.1;opacity:0.7498029;filter:url(#filter14783)"
       id="path26" /><path
       d="m 764.695,648.735 c 2.059,5.036 3.202,10.545 3.202,16.323 0,23.849 -19.335,43.182 -43.182,43.182 -1.694,0 -3.363,-0.108 -5.007,-0.297 -8.17,16.908 -25.481,28.573 -45.52,28.573 -19.293,0 -36.056,-10.819 -44.568,-26.716 -5.309,2.74 -11.33,4.297 -17.718,4.297 -21.371,0 -38.697,-17.325 -38.697,-38.698 0,-2.603 0.261,-5.145 0.752,-7.604 -4.457,-3.794 -7.287,-9.441 -7.287,-15.751 0,-1.126 0.094,-2.232 0.268,-3.309 h 197.757"
       style="fill:#dcfff5;fill-opacity:1;fill-rule:nonzero;stroke:none;stroke-width:0.1;opacity:0.7498029;filter:url(#filter14767)"
       id="path28" /><path
       d="m 505.604,345.352 c 0.064,0.935 0.109,1.877 0.109,2.829 0,22.327 -18.098,40.424 -40.424,40.424 -1.544,0 -3.066,-0.094 -4.565,-0.263 -3.972,23.907 -24.739,42.14 -49.773,42.14 -22.691,0 -41.88,-14.973 -48.233,-35.577 -4.653,2.167 -9.836,3.384 -15.307,3.384 -14.131,0 -26.366,-8.075 -32.368,-19.859 -2.301,1.012 -4.839,1.584 -7.515,1.584 -7.377,0 -13.736,-4.284 -16.779,-10.488 -2.668,0.838 -5.507,1.291 -8.452,1.291 -14.652,0 -26.691,-11.176 -28.067,-25.465 h 251.374"
       style="fill:#d7f4fa;fill-opacity:1;fill-rule:nonzero;stroke:none;stroke-width:0.1;opacity:0.7498029;filter:url(#filter14787)"
       id="path30" /><path
       d="m 552.977,492.758 c -2.113,13.281 -12.311,23.87 -25.396,26.544 1.069,3.257 1.655,6.733 1.655,10.347 0,18.314 -14.845,33.16 -33.158,33.16 -5.041,0 -9.816,-1.131 -14.096,-3.144 -5.095,21.307 -24.252,37.151 -47.12,37.151 -23.133,0 -42.467,-16.212 -47.293,-37.892 -3.865,1.623 -8.109,2.521 -12.564,2.521 -17.937,0 -32.478,-14.539 -32.478,-32.477 0,-2.642 0.324,-5.207 0.919,-7.666 -4.285,2.178 -9.131,3.414 -14.267,3.414 -17.421,0 -31.543,-14.121 -31.543,-31.541 0,-0.14 0.009,-0.278 0.011,-0.417 h 255.33"
       style="fill:#e5f4f8;fill-opacity:1;fill-rule:nonzero;stroke:none;stroke-width:0.1;opacity:0.7498029;filter:url(#filter14775)"
       id="path32" /><path
       d="m 728.063,387.74 c -2.286,0 -4.527,-0.186 -6.714,-0.534 0.761,3.254 1.177,6.643 1.177,10.13 0,24.455 -19.825,44.283 -44.282,44.283 -17.224,0 -32.141,-9.842 -39.463,-24.202 -5.363,3.179 -11.619,5.01 -18.305,5.01 -18.96,0 -34.482,-14.674 -35.854,-33.281 -3.939,1.473 -8.203,2.283 -12.656,2.283 -19.973,0 -36.164,-16.191 -36.164,-36.161 0,-3.3 0.45,-6.494 1.278,-9.531 h 49.098 20.676 27.118 13.084 38.579 28.966 55.888 c -0.234,23.235 -19.134,42.003 -42.426,42.003"
       style="fill:#dcfff5;fill-opacity:1;fill-rule:nonzero;stroke:none;stroke-width:0.1;opacity:0.7498029;filter:url(#filter14791)"
       id="path34" /><path
       d="M 25.9348,209.996 H 212.165 c 0.008,0.266 0.019,0.531 0.019,0.801 0,13.02 -10.556,23.578 -23.578,23.578 -2.912,0 -5.698,-0.531 -8.273,-1.497 0.328,1.614 0.5,3.284 0.5,4.995 0,13.811 -11.196,25.005 -25.006,25.005 -1.414,0 -2.799,-0.123 -4.148,-0.349 -2.314,14.302 -14.712,25.224 -29.667,25.224 -11.783,0 -21.977,-6.783 -26.9034,-16.658 -2.907,1.693 -6.2832,2.667 -9.8891,2.667 -10.8765,0 -19.6925,-8.819 -19.6925,-19.696 0,-0.067 0.0043,-0.133 0.005,-0.203 -0.934,0.131 -1.8855,0.203 -2.8547,0.203 -11.3058,0 -20.471,-9.164 -20.471,-20.468 0,-2.918 0.6152,-5.692 1.7156,-8.204 -8.6156,-1.077 -15.6492,-7.245 -17.9871,-15.398"
       style="fill:#dcfff5;fill-opacity:1;fill-rule:nonzero;stroke:none;stroke-width:0.1;opacity:0.7498029"
       id="path36" /><path
       d="m 532.856,642.869 c 0.023,0.519 0.04,1.039 0.04,1.564 0,19.05 -14.654,34.654 -33.304,36.215 -1.486,20.507 -18.552,36.695 -39.439,36.695 -4.817,0 -9.415,-0.904 -13.685,-2.48 -6.159,16.08 -21.696,27.519 -39.942,27.519 -22.866,0 -41.491,-17.947 -42.684,-40.518 -1.483,0.159 -2.986,0.254 -4.512,0.254 -22.982,0 -41.615,-18.631 -41.615,-41.615 0,-6.306 1.41,-12.279 3.919,-17.634 h 211.222"
       style="fill:#b8e8f6;fill-opacity:1;fill-rule:nonzero;stroke:none;stroke-width:0.1;opacity:0.7498029;filter:url(#filter14763)"
       id="path38" /><path
       d="m 278.002,644.369 c 3.883,6.731 6.115,14.532 6.115,22.86 0,25.314 -20.52,45.835 -45.834,45.835 -1.306,0 -2.596,-0.069 -3.874,-0.175 -3.255,24.248 -24.011,42.95 -49.151,42.95 -15.778,0 -29.824,-7.375 -38.91,-18.857 -7.322,5.084 -16.208,8.072 -25.797,8.072 -21.2268,0 -39.0369,-14.604 -43.9463,-34.312 -19.1383,-6.198 -32.9813,-24.16 -32.9813,-45.362 0,-7.542 1.7579,-14.671 4.8754,-21.011 H 278.002"
       style="fill:#d7f4fa;fill-opacity:1;fill-rule:nonzero;stroke:none;stroke-width:0.1;opacity:0.7498029;filter:url(#filter14759)"
       id="path40" /><path
       d="m 519.227,205.612 h 245.62 c 1.95,3.928 3.05,8.353 3.05,13.036 0,16.22 -13.147,29.369 -29.366,29.369 -0.049,0 -0.097,-0.004 -0.146,-0.004 0.275,2.973 0.149,6.034 -0.445,9.115 -3.379,17.545 -20.341,29.024 -37.886,25.645 -1.845,-0.355 -3.619,-0.87 -5.321,-1.51 -5.354,17.428 -23.095,28.383 -41.407,24.856 -7.209,-1.389 -13.498,-4.834 -18.388,-9.603 -10.814,11.627 -27.188,17.597 -43.929,14.373 -20.482,-3.946 -35.341,-20.463 -38.149,-40.011 -17.041,-3.619 -28.121,-20.23 -24.811,-37.413 0.25,-1.295 0.583,-2.552 0.975,-3.778 -6.738,-5.873 -10.566,-14.739 -9.797,-24.075"
       style="fill:#d1eff9;fill-opacity:1;fill-rule:nonzero;stroke:none;stroke-width:0.1;opacity:0.7498029"
       id="path42" /></g></svg>
