<?xml version="1.0" encoding="UTF-8" standalone="no"?>
<!-- Created with Inkscape (http://www.inkscape.org/) -->

<svg
   version="1.1"
   id="svg2"
   xml:space="preserve"
   width="407.02933"
   height="152.68947"
   viewBox="0 0 407.02931 152.68946"
   sodipodi:docname="clo-1.svg"
   inkscape:version="1.1.2 (0a00cf5339, 2022-02-04)"
   xmlns:inkscape="http://www.inkscape.org/namespaces/inkscape"
   xmlns:sodipodi="http://sodipodi.sourceforge.net/DTD/sodipodi-0.dtd"
   xmlns="http://www.w3.org/2000/svg"
   xmlns:svg="http://www.w3.org/2000/svg"><defs
     id="defs6" /><sodipodi:namedview
     id="namedview4"
     pagecolor="#ffffff"
     bordercolor="#666666"
     borderopacity="1.0"
     inkscape:pageshadow="2"
     inkscape:pageopacity="0.0"
     inkscape:pagecheckerboard="0"
     showgrid="false"
     inkscape:zoom="1.1574453"
     inkscape:cx="-209.51314"
     inkscape:cy="-210.37711"
     inkscape:window-width="1792"
     inkscape:window-height="1551"
     inkscape:window-x="1764"
     inkscape:window-y="270"
     inkscape:window-maximized="0"
     inkscape:current-layer="g8" /><g
     id="g8"
     inkscape:groupmode="layer"
     inkscape:label="ink_ext_XXXXXX"
     transform="matrix(1.3333333,0,0,-1.3333333,-636.42265,211.57066)"><path
       d="m 782.589,44.1609 c -1.461,10.9879 -10.865,19.4692 -22.252,19.4692 -2.893,0 -5.656,-0.5531 -8.195,-1.55 1.962,4.357 3.064,9.1871 3.064,14.2769 0,19.2192 -15.578,34.799 -34.795,34.799 -1.764,0 -3.496,-0.133 -5.189,-0.386 0.002,0.128 0.009,0.256 0.009,0.386 0,26.247 -21.275,47.522 -47.523,47.522 -18.682,0 -34.838,-10.782 -42.604,-26.458 -4.078,1.461 -8.47,2.261 -13.052,2.261 -18.908,0 -34.639,-13.557 -38.031,-31.479 -4.614,2.06 -9.719,3.214 -15.098,3.214 -13.379,0 -25.1,-7.089 -31.621,-17.7121 -1.135,0.2563 -2.312,0.402 -3.524,0.402 -6.433,0 -11.965,-3.811 -14.5,-9.2899 -1.875,0.427 -3.823,0.6602 -5.827,0.6602 -14.432,0 -26.134,-11.7012 -26.134,-26.1321 0,-3.5382 0.707,-6.9082 1.98,-9.9832 h 303.292"
       style="opacity:0.749803;fill:#e8ffff;fill-opacity:1;fill-rule:nonzero;stroke:none;stroke-width:0.1"
       id="path24" /></g></svg>
