<?xml version="1.0" encoding="UTF-8" standalone="no"?>
<!-- Created with Inkscape (http://www.inkscape.org/) -->

<svg
   version="1.1"
   id="svg2"
   xml:space="preserve"
   width="278.595"
   height="127.33366"
   viewBox="0 0 278.59499 127.33366"
   sodipodi:docname="far-3.svg"
   inkscape:version="1.1.2 (0a00cf5339, 2022-02-04)"
   xmlns:inkscape="http://www.inkscape.org/namespaces/inkscape"
   xmlns:sodipodi="http://sodipodi.sourceforge.net/DTD/sodipodi-0.dtd"
   xmlns="http://www.w3.org/2000/svg"
   xmlns:svg="http://www.w3.org/2000/svg"><defs
     id="defs6"><filter
       inkscape:collect="always"
       style="color-interpolation-filters:sRGB"
       id="filter14767"
       x="-0.01918045"
       y="-0.04396879"
       width="1.0383609"
       height="1.0879376"><feGaussianBlur
         inkscape:collect="always"
         stdDeviation="1.6081768"
         id="feGaussianBlur14769" /></filter></defs><sodipodi:namedview
     id="namedview4"
     pagecolor="#ffffff"
     bordercolor="#666666"
     borderopacity="1.0"
     inkscape:pageshadow="2"
     inkscape:pageopacity="0.0"
     inkscape:pagecheckerboard="0"
     showgrid="false"
     inkscape:zoom="0.81843744"
     inkscape:cx="-500.34368"
     inkscape:cy="385.49067"
     inkscape:window-width="1792"
     inkscape:window-height="1551"
     inkscape:window-x="1764"
     inkscape:window-y="270"
     inkscape:window-maximized="0"
     inkscape:current-layer="g8" /><g
     id="g8"
     inkscape:groupmode="layer"
     inkscape:label="ink_ext_XXXXXX"
     transform="matrix(1.3333333,0,0,-1.3333333,-750.41382,987.16748)"><path
       d="m 764.695,648.735 c 2.059,5.036 3.202,10.545 3.202,16.323 0,23.849 -19.335,43.182 -43.182,43.182 -1.694,0 -3.363,-0.108 -5.007,-0.297 -8.17,16.908 -25.481,28.573 -45.52,28.573 -19.293,0 -36.056,-10.819 -44.568,-26.716 -5.309,2.74 -11.33,4.297 -17.718,4.297 -21.371,0 -38.697,-17.325 -38.697,-38.698 0,-2.603 0.261,-5.145 0.752,-7.604 -4.457,-3.794 -7.287,-9.441 -7.287,-15.751 0,-1.126 0.094,-2.232 0.268,-3.309 h 197.757"
       style="opacity:0.749803;fill:#dcfff5;fill-opacity:1;fill-rule:nonzero;stroke:none;stroke-width:0.1;filter:url(#filter14767)"
       id="path28" /></g></svg>
