<?xml version="1.0" encoding="UTF-8" standalone="no"?>
<!-- Created with Inkscape (http://www.inkscape.org/) -->

<svg
   version="1.1"
   id="svg2"
   xml:space="preserve"
   width="337.86044"
   height="116.05647"
   viewBox="0 0 337.86043 116.05646"
   sodipodi:docname="mid-1.svg"
   inkscape:version="1.1.2 (0a00cf5339, 2022-02-04)"
   xmlns:inkscape="http://www.inkscape.org/namespaces/inkscape"
   xmlns:sodipodi="http://sodipodi.sourceforge.net/DTD/sodipodi-0.dtd"
   xmlns="http://www.w3.org/2000/svg"
   xmlns:svg="http://www.w3.org/2000/svg"><defs
     id="defs6"><filter
       inkscape:collect="always"
       style="color-interpolation-filters:sRGB"
       id="filter14787"
       x="-0.0038021555"
       y="-0.011231968"
       width="1.0076043"
       height="1.0224639"><feGaussianBlur
         inkscape:collect="always"
         stdDeviation="0.39840728"
         id="feGaussianBlur14789" /></filter></defs><sodipodi:namedview
     id="namedview4"
     pagecolor="#ffffff"
     bordercolor="#666666"
     borderopacity="1.0"
     inkscape:pageshadow="2"
     inkscape:pageopacity="0.0"
     inkscape:pagecheckerboard="0"
     showgrid="false"
     inkscape:zoom="0.81843744"
     inkscape:cx="237.64798"
     inkscape:cy="-105.6892"
     inkscape:window-width="1792"
     inkscape:window-height="1551"
     inkscape:window-x="1764"
     inkscape:window-y="270"
     inkscape:window-maximized="0"
     inkscape:current-layer="g8" /><g
     id="g8"
     inkscape:groupmode="layer"
     inkscape:label="ink_ext_XXXXXX"
     transform="matrix(1.3333333,0,0,-1.3333333,-337.69842,575.25089)"><path
       d="m 505.604,345.352 c 0.064,0.935 0.109,1.877 0.109,2.829 0,22.327 -18.098,40.424 -40.424,40.424 -1.544,0 -3.066,-0.094 -4.565,-0.263 -3.972,23.907 -24.739,42.14 -49.773,42.14 -22.691,0 -41.88,-14.973 -48.233,-35.577 -4.653,2.167 -9.836,3.384 -15.307,3.384 -14.131,0 -26.366,-8.075 -32.368,-19.859 -2.301,1.012 -4.839,1.584 -7.515,1.584 -7.377,0 -13.736,-4.284 -16.779,-10.488 -2.668,0.838 -5.507,1.291 -8.452,1.291 -14.652,0 -26.691,-11.176 -28.067,-25.465 h 251.374"
       style="opacity:0.749803;fill:#d7f4fa;fill-opacity:1;fill-rule:nonzero;stroke:none;stroke-width:0.1;filter:url(#filter14787)"
       id="path30" /></g></svg>
