<?xml version="1.0" encoding="UTF-8" standalone="no"?>
<!-- Created with Inkscape (http://www.inkscape.org/) -->

<svg
   version="1.1"
   id="svg2"
   xml:space="preserve"
   width="244.43379"
   height="97.865799"
   viewBox="0 0 244.43378 97.865795"
   sodipodi:docname="mid-2.svg"
   inkscape:version="1.1.2 (0a00cf5339, 2022-02-04)"
   xmlns:inkscape="http://www.inkscape.org/namespaces/inkscape"
   xmlns:sodipodi="http://sodipodi.sourceforge.net/DTD/sodipodi-0.dtd"
   xmlns="http://www.w3.org/2000/svg"
   xmlns:svg="http://www.w3.org/2000/svg"><defs
     id="defs6"><filter
       inkscape:collect="always"
       style="color-interpolation-filters:sRGB"
       id="filter14779"
       x="-0.0052707219"
       y="-0.013375543"
       width="1.0105414"
       height="1.0267511"><feGaussianBlur
         inkscape:collect="always"
         stdDeviation="0.39840728"
         id="feGaussianBlur14781" /></filter></defs><sodipodi:namedview
     id="namedview4"
     pagecolor="#ffffff"
     bordercolor="#666666"
     borderopacity="1.0"
     inkscape:pageshadow="2"
     inkscape:pageopacity="0.0"
     inkscape:pagecheckerboard="0"
     showgrid="false"
     inkscape:zoom="1.1574453"
     inkscape:cx="-368.48393"
     inkscape:cy="281.22279"
     inkscape:window-width="1792"
     inkscape:window-height="1551"
     inkscape:window-x="1764"
     inkscape:window-y="270"
     inkscape:window-maximized="0"
     inkscape:current-layer="g8" /><g
     id="g8"
     inkscape:groupmode="layer"
     inkscape:label="ink_ext_XXXXXX"
     transform="matrix(1.3333333,0,0,-1.3333333,-767.49441,757.11621)"><path
       d="M 578.906,495.394 H 754.94 c 1.916,2.715 3.05,6.021 3.05,9.598 0,9.222 -7.477,16.699 -16.7,16.699 -1.486,0 -2.919,-0.212 -4.291,-0.577 -0.728,17.621 -15.238,31.686 -33.04,31.686 -8.535,0 -16.313,-3.235 -22.181,-8.542 -4.592,13.17 -17.114,22.623 -31.848,22.623 -17.248,0 -31.462,-12.949 -33.476,-29.653 -3.192,1.175 -6.642,1.818 -10.243,1.818 -16.366,0 -29.634,-13.266 -29.634,-29.635 0,-4.931 1.211,-9.575 3.341,-13.665 -0.344,-0.104 -0.675,-0.233 -1.012,-0.352"
       style="opacity:0.749803;fill:#f3ebf3;fill-opacity:1;fill-rule:nonzero;stroke:none;stroke-width:0.1;filter:url(#filter14779)"
       id="path20" /></g></svg>
